<svg width="800" height="800" xmlns="http://www.w3.org/2000/svg" xml:space="preserve" enable-background="new 0 0 800 800" version="1.1">

 <g>
  <title>Layer 1</title>
  <path id="svg_2" d="m269.0827,725.00671c-9.26291,-4.26214 -18.25488,-8.20575 -27.06825,-12.51464c-24.48657,-11.97162 -47.26596,-26.6698 -67.1805,-45.28199c-16.00231,-14.95581 -32.2314,-29.95001 -46.2196,-46.71313c-20.27512,-24.29724 -36.79874,-51.20178 -49.01058,-80.71759c-9.375,-22.65918 -17.19195,-45.71356 -21.9218,-69.72071c-2.58737,-13.13256 -4.68836,-26.47363 -5.51394,-39.8132c-1.12857,-18.23532 -2.07151,-36.64212 -0.84626,-54.82394c1.64766,-24.45001 5.96669,-48.64658 13.09227,-72.23703c12.27315,-40.63239 30.08343,-78.42056 56.02794,-112.2776c13.80927,-18.02083 28.77569,-34.98938 45.55707,-50.15043c28.81559,-26.03324 61.03606,-46.862 96.98767,-62.07067c28.05671,-11.86889 57.159,-19.57339 87.04416,-24.31803c22.84275,-3.62656 46.02591,-4.58351 69.12037,-3.18306c33.41238,2.02611 66.09765,8.28565 97.78668,19.31965c37.75036,13.14455 72.31347,32.16796 103.21508,57.45339c31.36927,25.66805 57.78516,55.82869 79.12043,90.40622c21.72088,35.20243 36.15283,73.29013 44.29492,113.6568c3.12903,15.51309 3.98004,31.5185 5.33179,47.34549c0.87469,10.24063 1.23669,20.57395 1.02514,30.84921c-0.6134,29.7967 -4.81842,59.08915 -13.39636,87.70032c-12.14294,40.5022 -30.01636,78.07446 -55.70227,111.89588c-13.43799,17.69421 -28.11035,34.24035 -44.47302,49.12316c-29.22382,26.58088 -61.81909,48.00153 -98.44495,63.42316c-28.07834,11.82263 -57.16464,19.56073 -87.05227,24.28894c-22.84333,3.61383 -46.02817,4.59119 -69.1214,3.16913c-38.65827,-2.38061 -76.18485,-10.43506 -112.65232,-24.80933m273.42145,-248.00671c9.17065,-0.33609 17.99823,-3.24383 23.5083,-10.16699c12.91052,-16.22159 13.07837,-32.09125 -2.29101,-47.67502c-45.73737,-46.37537 -91.89026,-92.34326 -138.12336,-138.22595c-15.02307,-14.90924 -34.64578,-15.45096 -50.09247,-0.11298c-46.33889,46.01267 -92.47515,92.23032 -138.47822,138.57864c-4.11157,4.14243 -8.05412,9.39029 -9.73332,14.84562c-6.94298,22.55615 10.34413,42.9342 31.53686,42.62686c9.62964,-0.13962 17.7847,-4.65857 24.62781,-11.51084c37.66983,-37.72012 75.38205,-75.39785 113.05023,-113.11959c1.27762,-1.27948 2.24112,-2.87259 3.6565,-4.71766c1.94079,2.1337 3.11807,3.53937 4.40927,4.83124c37.56772,37.58661 75.14984,75.15885 112.72134,112.7417c6.75086,6.7529 14.55444,11.31854 25.20807,11.90497z" fill="#B2EBF2"/>
  <path id="svg_3" d="m542.05786,476.99988c-10.20734,-0.58631 -18.01092,-5.15195 -24.76178,-11.90485c-37.5715,-37.58285 -75.15362,-75.15509 -112.72134,-112.7417c-1.2912,-1.29187 -2.46848,-2.69754 -4.40927,-4.83124c-1.41538,1.84507 -2.37888,3.43818 -3.6565,4.71766c-37.66818,37.72174 -75.3804,75.39947 -113.05023,113.11959c-6.84311,6.85227 -14.99817,11.37122 -24.62781,11.51084c-21.19273,0.30734 -38.47984,-20.07071 -31.53686,-42.62686c1.6792,-5.45533 5.62175,-10.70319 9.73332,-14.84562c46.00307,-46.34832 92.13933,-92.56597 138.47822,-138.57864c15.44669,-15.33798 35.0694,-14.79626 50.09247,0.11298c46.2331,45.88269 92.38599,91.85058 138.12336,138.22595c15.36938,15.58377 15.20153,31.45343 2.29101,47.67502c-5.51007,6.92316 -14.33765,9.8309 -23.95459,10.16687z" fill="#1976D2"/>
 </g>
</svg>