<svg width="701" height="701" xmlns="http://www.w3.org/2000/svg" xml:space="preserve" enable-background="new 0 0 701 701" version="1.1">

 <g>
  <title>Layer 1</title>
  <path id="svg_1" d="m702,344c0,5.02209 0,10.04419 -0.38129,15.74228c-2.11444,17.86713 -3.05481,35.18317 -5.73913,52.22446c-6.37268,40.4573 -20.27881,78.54452 -40.805,113.83148c-27.89404,47.95294 -65.07,87.56482 -111.45007,118.35309c-28.13727,18.67828 -58.49746,32.54937 -90.7847,42.15399c-30.25229,8.99933 -61.21862,13.92523 -92.80624,14.76397c-1.01874,0.02704 -2.02271,0.60798 -3.03357,0.93073c-3.6929,0 -7.38583,0 -11.74692,-0.38037c-10.28833,-1.09186 -19.92425,-1.6366 -29.526,-2.54309c-49.68298,-4.69055 -96.33726,-19.47156 -139.45306,-44.3382c-39.55822,-22.81482 -72.97377,-52.99585 -101.27893,-88.94818c-26.12063,-33.17755 -44.92796,-70.1095 -57.5651,-110.1781c-9.22612,-29.25323 -14.54419,-59.32233 -15.46471,-90.07935c-0.05543,-1.8522 -0.63148,-3.68884 -0.96528,-5.53271c0,-5.35492 0,-10.70987 0.38128,-16.74152c1.05554,-32.62603 6.16437,-63.90741 15.59779,-94.38208c14.16337,-45.7547 36.46552,-87.07214 67.80569,-123.54667c33.64767,-39.16004 73.241,-70.21115 120.32007,-91.68979c38.79603,-17.69972 79.4877,-27.60175 121.9003,-30.88681c6.33886,-0.49098 12.6636,-1.16421 18.99487,-1.75313c3.3613,0 6.72256,0 10.75018,0.3807c18.19559,2.09936 35.84683,3.02353 53.23035,5.69172c44.84238,6.88282 86.64642,22.50661 125.23804,46.37132c35.54364,21.9799 65.85919,49.87115 91.86425,82.54375c21.3852,26.86831 38.19257,56.38673 50.47425,88.36882c14.39654,37.48933 22.74853,76.31261 23.54663,116.60905c0.02014,1.01709 0.58533,2.02335 0.8963,3.03464m-410.17358,-77.67383c-34.16953,34.16937 -68.35521,68.3226 -102.47591,102.54065c-2.56618,2.57346 -4.95096,5.42477 -6.93625,8.46308c-7.05292,10.79367 -7.7166,22.01534 -1.49001,33.43405c6.23028,11.42538 16.22542,16.90387 28.93201,17.0689c10.44792,0.13578 18.6955,-5.28729 25.81174,-12.38684c37.39325,-37.30554 74.71792,-74.67971 112.07403,-112.02249c1.23954,-1.2391 2.56043,-2.39676 4.36145,-4.0751c1.40693,1.69061 2.47638,3.20163 3.76609,4.49261c36.97742,37.01447 73.96661,74.01722 110.9964,110.97931c2.45916,2.45468 5.09991,4.78787 7.91845,6.81241c18.40534,13.22046 44.39856,3.92911 50.28168,-17.91913c3.69806,-13.73352 -1.36767,-24.90588 -10.79663,-34.36966c-45.51269,-45.68084 -91.15298,-91.23462 -136.75443,-136.82705c-16.1011,-16.09792 -35.75408,-16.06717 -51.95962,0.08697c-11.0928,11.05763 -22.15384,22.14707 -33.729,33.72229z" fill="#C70101"/>
  <path id="svg_6" d="m292.07639,266.07617c11.32519,-11.32522 22.38623,-22.41466 33.47903,-33.47229c16.20554,-16.15414 35.85852,-16.18489 51.95962,-0.08697c45.60145,45.59243 91.24174,91.14621 136.75443,136.82705c9.42896,9.46378 14.49469,20.63614 10.79663,34.36966c-5.88312,21.84824 -31.87634,31.13959 -50.28168,17.91913c-2.81854,-2.02454 -5.45929,-4.35773 -7.91845,-6.81241c-37.02979,-36.96209 -74.01898,-73.96484 -110.9964,-110.97931c-1.28971,-1.29098 -2.35916,-2.802 -3.76609,-4.49261c-1.80102,1.67834 -3.12191,2.836 -4.36145,4.0751c-37.35611,37.34278 -74.68078,74.71695 -112.07403,112.02249c-7.11624,7.09955 -15.36382,12.52262 -25.81174,12.38684c-12.70659,-0.16503 -22.70173,-5.64352 -28.93201,-17.0689c-6.22659,-11.41871 -5.56291,-22.64038 1.49001,-33.43405c1.98529,-3.03831 4.37007,-5.88962 6.93625,-8.46308c34.1207,-34.21805 68.30638,-68.37128 102.72588,-102.79065z" fill="#00FE00"/>
 </g>
</svg>